<svg width="16" height="16" viewBox="0 0 16 16" fill="none" xmlns="http://www.w3.org/2000/svg">
<path opacity="0.3" d="M1.35144 14.6498C-0.164562 13.1338 0.00848103 11.1079 0.00848103 7.99594C0.00848103 4.95594 -0.191562 2.88209 1.35144 1.34409C2.25912 0.492634 3.46312 0.0283075 4.70746 0.0506312C6.18046 -0.0153688 9.82744 -0.0183688 11.2994 0.0506312C14.3104 0.189631 15.8184 1.892 15.9504 4.702C16.0154 6.174 16.0194 9.81982 15.9504 11.2928C15.8414 13.6718 14.7224 14.9931 13.2394 15.5721C12.1504 15.9941 11.0865 15.992 8.00348 15.992C7.37848 15.992 6.79249 16.0008 6.24249 16.0008C4.14849 15.9988 2.57444 15.8728 1.35144 14.6498ZM13.6295 13.6307C14.6215 12.6307 14.5585 11.2909 14.5585 7.99594C14.5585 5.86094 14.5505 5.60799 14.5115 4.76499C14.3445 1.06499 11.5565 1.43979 8.00445 1.43979L7.97345 1.41977C5.83645 1.41977 5.58545 1.43081 4.73645 1.45981C1.03645 1.64981 1.41949 4.30271 1.41949 7.98471C1.41949 10.7077 1.21947 12.5029 2.33947 13.6209C3.31447 14.5989 4.65046 14.5487 7.98346 14.5487C11.2215 14.5497 12.6215 14.6387 13.6295 13.6307ZM3.90149 7.99887C3.90083 7.45953 4.00658 6.9255 4.2127 6.4271C4.41883 5.92869 4.72124 5.4759 5.10266 5.09458C5.48408 4.71325 5.93703 4.41093 6.43548 4.20493C6.93394 3.99892 7.4681 3.8931 8.00744 3.89389C9.09616 3.89389 10.1403 4.3262 10.9102 5.09604C11.68 5.86588 12.1125 6.91016 12.1125 7.99887C12.1109 9.08768 11.6769 10.1314 10.9059 10.9002C10.135 11.6691 9.09027 12.1003 8.00146 12.099C6.91407 12.099 5.87125 11.6667 5.10235 10.8978C4.33345 10.1289 3.90149 9.08626 3.90149 7.99887ZM5.34149 7.99887C5.34136 8.34893 5.41019 8.69545 5.54406 9.01889C5.67793 9.34234 5.87416 9.63655 6.12164 9.88413C6.36912 10.1317 6.66299 10.3278 6.98639 10.4618C7.30978 10.5958 7.65641 10.6649 8.00647 10.6649C8.35651 10.665 8.70315 10.5962 9.02655 10.4623C9.34995 10.3283 9.64374 10.1317 9.89117 9.88413C10.1386 9.63651 10.3348 9.34239 10.4685 9.01889C10.6022 8.69539 10.6709 8.34892 10.6705 7.99887C10.6706 7.64899 10.6018 7.30261 10.468 6.97934C10.3341 6.65607 10.1379 6.36249 9.8905 6.11508C9.6431 5.86768 9.34933 5.67128 9.02606 5.53745C8.70279 5.40362 8.35635 5.33468 8.00647 5.33481C7.65629 5.33428 7.30945 5.40283 6.98578 5.53647C6.6621 5.67011 6.36791 5.86619 6.12011 6.11362C5.87232 6.36105 5.67575 6.65489 5.54162 6.97837C5.40749 7.30184 5.33844 7.64869 5.33844 7.99887H5.34149ZM11.3155 3.73178C11.3156 3.60585 11.3405 3.48139 11.3889 3.36508C11.4372 3.24878 11.5079 3.14301 11.597 3.05405C11.6862 2.96509 11.792 2.8946 11.9084 2.84653C12.0248 2.79846 12.1495 2.77364 12.2754 2.77378C12.5296 2.77378 12.7734 2.87491 12.9532 3.05454C13.1331 3.23417 13.2342 3.47761 13.2344 3.73178C13.2346 3.85776 13.2099 3.98256 13.1617 4.09897C13.1136 4.21538 13.0429 4.32142 12.9539 4.41049C12.8648 4.49957 12.759 4.56987 12.6426 4.61801C12.5262 4.66616 12.4014 4.6909 12.2754 4.69077C12.1489 4.6913 12.0236 4.66665 11.9066 4.6185C11.7895 4.57036 11.6832 4.49992 11.5937 4.41049C11.5042 4.32107 11.4333 4.21447 11.385 4.09751C11.3367 3.98055 11.312 3.85538 11.3124 3.72885L11.3155 3.73178Z" fill="#131821"/>
</svg>
