<svg width="16" height="13" viewBox="0 0 16 13" fill="none" xmlns="http://www.w3.org/2000/svg">
<path opacity="0.3" d="M16 1.5378C15.3981 1.8003 14.7616 1.97476 14.11 2.0558C14.7967 1.64843 15.3101 1.00336 15.553 0.242799C14.91 0.624135 14.2065 0.892673 13.473 1.0368C13.0232 0.556934 12.4395 0.223395 11.7977 0.0794801C11.1559 -0.0644347 10.4856 -0.0120742 9.87399 0.229764C9.26233 0.471602 8.73751 0.891745 8.36767 1.43564C7.99782 1.97954 7.80004 2.62207 7.8 3.2798C7.79741 3.53118 7.8229 3.78207 7.876 4.0278C6.57106 3.96421 5.29424 3.62591 4.12902 3.03502C2.96379 2.44414 1.93639 1.61397 1.114 0.598798C0.69185 1.32042 0.561093 2.17597 0.74843 2.99073C0.935767 3.8055 1.42707 4.51803 2.122 4.9828C1.60309 4.97014 1.09481 4.83296 0.64 4.5828V4.6188C0.641802 5.37598 0.903939 6.10952 1.38243 6.69635C1.86093 7.28318 2.52668 7.68761 3.268 7.8418C2.98739 7.91575 2.69819 7.95207 2.408 7.9498C2.19959 7.95351 1.99139 7.93473 1.787 7.8938C1.99894 8.54482 2.40749 9.11414 2.95639 9.52335C3.5053 9.93257 4.16756 10.1616 4.852 10.1788C3.69103 11.0871 2.25908 11.5801 0.785 11.5788C0.522491 11.5783 0.260287 11.5609 0 11.5268C1.49988 12.4933 3.24768 13.0046 5.032 12.9988C6.26023 13.0073 7.4779 12.7717 8.61431 12.3057C9.75071 11.8396 10.7832 11.1524 11.6518 10.284C12.5204 9.4156 13.2078 8.38327 13.6741 7.24696C14.1404 6.11065 14.3762 4.89303 14.368 3.6648C14.368 3.5198 14.363 3.3798 14.356 3.2408C15.003 2.77779 15.5601 2.20068 16 1.5378Z" fill="#131821"/>
</svg>
